<svg width="50" height="50" viewBox="0 0 50 50" fill="none" xmlns="http://www.w3.org/2000/svg">
<path d="M45.8327 43.75V39.5833C45.8327 35.7003 43.1769 32.4376 39.5827 31.5125M32.291 6.85575C35.345 8.09197 37.4993 11.0861 37.4993 14.5833C37.4993 18.0806 35.345 21.0747 32.291 22.3109M35.416 43.75C35.416 39.8672 35.416 37.9257 34.7817 36.3943C33.9359 34.3524 32.3136 32.7301 30.2717 31.8843C28.7403 31.25 26.7989 31.25 22.916 31.25H16.666C12.7832 31.25 10.8417 31.25 9.31032 31.8843C7.26842 32.7301 5.64614 34.3524 4.80035 36.3943C4.16602 37.9257 4.16602 39.8672 4.16602 43.75M28.1243 14.5833C28.1243 19.1857 24.3934 22.9167 19.791 22.9167C15.1886 22.9167 11.4577 19.1857 11.4577 14.5833C11.4577 9.98096 15.1886 6.25 19.791 6.25C24.3934 6.25 28.1243 9.98096 28.1243 14.5833Z" stroke="black" stroke-width="2" stroke-linecap="round" stroke-linejoin="round"/>
</svg>
