<svg width="50" height="50" viewBox="0 0 50 50" fill="none" xmlns="http://www.w3.org/2000/svg">
<path d="M17.8958 28.1458L32.125 36.4375M32.1042 13.5625L17.8958 21.8541M43.75 10.4166C43.75 13.8684 40.9518 16.6666 37.5 16.6666C34.0482 16.6666 31.25 13.8684 31.25 10.4166C31.25 6.96485 34.0482 4.16663 37.5 4.16663C40.9518 4.16663 43.75 6.96485 43.75 10.4166ZM18.75 25C18.75 28.4517 15.9518 31.25 12.5 31.25C9.04822 31.25 6.25 28.4517 6.25 25C6.25 21.5482 9.04822 18.75 12.5 18.75C15.9518 18.75 18.75 21.5482 18.75 25ZM43.75 39.5833C43.75 43.0351 40.9518 45.8333 37.5 45.8333C34.0482 45.8333 31.25 43.0351 31.25 39.5833C31.25 36.1315 34.0482 33.3333 37.5 33.3333C40.9518 33.3333 43.75 36.1315 43.75 39.5833Z" stroke="black" stroke-width="2" stroke-linecap="round" stroke-linejoin="round"/>
</svg>
